<svg xmlns="http://www.w3.org/2000/svg" fill="none" viewBox="-0.7000000000000001 -0.7000000000000001 14 14" height="14" width="14" style="background-color: currentColor"><g id="bill-4--accounting-billing-payment-finance-cash-currency-money-bill-dollar-stack"><path id="Union" fill="#8896a3" fill-rule="evenodd" d="M0 2.385c0 -0.7334999999999999 0.6381 -1.26 1.3365 -1.26h7.538399999999999c0.6993 0 1.3374 0.5265 1.3374 1.26v4.8564c0 0.7334999999999999 -0.639 1.26 -1.3374 1.26H1.3365C0.639 8.5005 0 7.973999999999999 0 7.2405V2.3841Zm3.7296 2.4282a1.377 1.377 0 1 1 2.7531000000000003 0 1.377 1.377 0 0 1 -2.754 0ZM1.2114 4.7250000000000005a0.675 0.675 0 1 1 1.35 0 0.675 0.675 0 0 1 -1.35 0ZM8.325000000000001 4.05a0.675 0.675 0 1 0 0 1.35 0.675 0.675 0 0 0 0 -1.35Zm4.244400000000001 0.7632a0.675 0.675 0 0 0 -1.35 0v4.5a0.225 0.225 0 0 1 -0.225 0.225h-8.1a0.675 0.675 0 1 0 0 1.35h8.1a1.575 1.575 0 0 0 1.575 -1.575v-4.5Z" clip-rule="evenodd" stroke-width="0.9"></path></g></svg>