<svg xmlns="http://www.w3.org/2000/svg" fill="none" viewBox="-0.7000000000000001 -0.7000000000000001 14 14" height="14" width="14" style="background-color: #252533"><g id="one-vesus-one--entertainment-gaming-one-vesus-one"><path id="Union" fill="#8896a3" fill-rule="evenodd" d="M4.5 5.4a2.7 2.7 0 1 0 0 -5.4 2.7 2.7 0 0 0 0 5.4Zm5.266800000000001 5.4855 0.09269999999999999 0.2763a1.1754 1.1754 0 0 0 2.2833 -0.5013000000000001l-0.18180000000000002 -1.6353a2.16 2.16 0 0 0 -2.1474 -1.9224H7.1918999999999995c-1.1007 0 -2.025 0.8280000000000001 -2.1474 1.9224l-0.18180000000000002 1.6344a1.1754 1.1754 0 0 0 2.2842 0.5022000000000001l0.09179999999999999 -0.2763c0.108 -0.3231 0.40950000000000003 -0.54 0.7497 -0.54h1.0287c0.3402 0 0.6426 0.2169 0.7497 0.54ZM3.9258 8.901000000000002A3.285 3.285 0 0 1 5.5440000000000005 6.4215 4.5 4.5 0 0 0 0 10.8a0.45 0.45 0 0 0 0.45 0.45h3.3264a2.3013 2.3013 0 0 1 -0.03150000000000001 -0.7137l0.18180000000000002 -1.6353Z" clip-rule="evenodd" stroke-width="0.9"></path></g></svg>