<svg xmlns="http://www.w3.org/2000/svg" fill="none" viewBox="-0.7000000000000001 -0.7000000000000001 14 14" height="14" width="14" style="background-color: currentColor"><g id="wallet--money-payment-finance-wallet"><path id="Union" fill="#8896a3" fill-rule="evenodd" d="M0 3.9195000000000007a3.15 3.15 0 0 1 3.15 -3.15H9a0.45 0.45 0 0 1 0.45 0.45v1.2582l-6.430499999999999 0a0.5625 0.5625 0 1 0 0 1.125l6.8265 0c0.018000000000000002 0 0.0351 -0.0009000000000000001 0.0522 -0.0027l0.1926 0a1.35 1.35 0 0 1 1.35 1.35v0.8244h-2.6550000000000002c-0.7415999999999999 0 -1.575 0.5625 -1.575 1.5255v1.6002c0 0.9630000000000001 0.8334 1.5255 1.575 1.5255h2.6550000000000002v0.8244a1.35 1.35 0 0 1 -1.35 1.35L1.35 12.6A1.35 1.35 0 0 1 0 11.25V3.9195000000000007Zm8.7867 2.9799h3.15c0.24840000000000004 0 0.45 0.18000000000000002 0.45 0.4005v1.6002c0 0.2214 -0.2016 0.4005 -0.45 0.4005h-3.15c-0.24840000000000004 0 -0.45 -0.18000000000000002 -0.45 -0.4005V7.299900000000001c0 -0.2214 0.2016 -0.4005 0.45 -0.4005Z" clip-rule="evenodd" stroke-width="0.9"></path></g></svg>