<svg xmlns="http://www.w3.org/2000/svg" fill="none" viewBox="-0.7000000000000001 -0.7000000000000001 14 14" height="14" width="14" style="background-color: currentColor"><g id="chat-bubble-typing-oval--messages-message-bubble-typing-chat"><path id="Subtract" fill="#8896a3" fill-rule="evenodd" d="M6.2982000000000005 0.0414A6.2585999999999995 6.2585999999999995 0 1 1 3.6891000000000003 11.988000000000001l-3.1194 0.5643a0.45 0.45 0 0 1 -0.5004000000000001 -0.6012000000000001l0.8946000000000001 -2.3814A6.2585999999999995 6.2585999999999995 0 0 1 6.2982000000000005 0.0414ZM4.5 6.3a0.9 0.9 0 1 1 -1.8 0 0.9 0.9 0 0 1 1.8 0Zm1.8 0.9a0.9 0.9 0 1 0 0 -1.8 0.9 0.9 0 0 0 0 1.8Zm2.7 0a0.9 0.9 0 1 0 0 -1.8 0.9 0.9 0 0 0 0 1.8Z" clip-rule="evenodd" stroke-width="0.9"></path></g></svg>