<svg xmlns="http://www.w3.org/2000/svg" fill="none" viewBox="-0.7000000000000001 -0.7000000000000001 14 14" height="14" width="14" style="background-color: #252533"><g id="bullet-list--points-bullet-unordered-list-lists-bullets"><path id="Union" fill="#8896a3" fill-rule="evenodd" d="M1.8 2.25a0.9 0.9 0 1 1 -1.8 0 0.9 0.9 0 0 1 1.8 0ZM0.9 7.2a0.9 0.9 0 1 0 0 -1.8 0.9 0.9 0 0 0 0 1.8Zm0 4.05a0.9 0.9 0 1 0 0 -1.8 0.9 0.9 0 0 0 0 1.8ZM4.275 1.575a0.675 0.675 0 0 0 0 1.35h7.65a0.675 0.675 0 0 0 0 -1.35h-7.65ZM3.6 6.3a0.675 0.675 0 0 1 0.675 -0.675h7.65a0.675 0.675 0 0 1 0 1.35h-7.65A0.675 0.675 0 0 1 3.6 6.3Zm0.675 3.375a0.675 0.675 0 0 0 0 1.35h7.65a0.675 0.675 0 0 0 0 -1.35h-7.65Z" clip-rule="evenodd" stroke-width="0.9"></path></g></svg>